<?xml version="1.0" standalone="no"?>
<!DOCTYPE svg PUBLIC "-//W3C//DTD SVG 20010904//EN"
 "http://www.w3.org/TR/2001/REC-SVG-20010904/DTD/svg10.dtd">
<svg version="1.0" xmlns="http://www.w3.org/2000/svg"
 width="210.000000pt" height="158.000000pt" viewBox="0 0 210.000000 158.000000"
 preserveAspectRatio="xMidYMid meet">

<g transform="translate(0.000000,158.000000) scale(0.100000,-0.100000)"
fill="#000000" stroke="none">
<path d="M1645 1163 c-939 -28 -1006 -31 -1031 -48 -14 -9 -32 -14 -40 -11 -8
3 -14 1 -14 -4 0 -13 45 -13 511 1 212 7 401 9 420 5 l34 -6 0 -74 c-1 -43 -6
-80 -13 -89 -10 -12 -10 -16 3 -21 12 -4 15 -24 15 -96 l0 -90 31 0 32 0 -7
61 c-3 34 -6 111 -6 170 0 104 -1 109 -21 109 -15 0 -20 5 -17 23 3 21 7 22
131 25 l127 3 0 -89 c0 -49 3 -144 7 -211 l6 -123 -129 1 c-71 1 -142 0 -159
-1 -27 -3 -30 0 -27 24 1 14 -14 63 -33 107 -39 88 -39 93 1 173 30 59 30 68
0 68 -20 0 -28 -11 -52 -70 -27 -64 -30 -68 -35 -43 -4 16 -7 47 -8 71 -1 39
-3 43 -23 40 -22 -3 -23 -6 -23 -120 0 -82 -4 -121 -13 -130 -19 -19 -27 -1
-46 101 -9 47 -19 98 -22 114 -5 24 -10 27 -44 27 -38 0 -39 -1 -44 -42 -4
-24 -13 -90 -21 -147 -21 -147 -20 -163 8 -159 17 2 23 11 25 36 3 29 6 32 39
32 35 0 35 -1 29 -32 -13 -67 -1 -64 -431 -76 -214 -5 -391 -9 -392 -8 -2 2
-6 84 -10 183 -6 179 -6 180 -29 175 -22 -4 -22 -4 -18 -165 3 -89 7 -198 10
-242 5 -79 6 -81 32 -80 19 0 30 -8 40 -27 15 -32 52 -295 52 -373 0 -54 15
-80 30 -54 5 7 7 16 5 19 -2 3 -9 59 -15 125 -12 126 -2 274 21 301 21 26 69
17 103 -20 34 -36 66 -56 89 -56 8 0 31 13 52 30 50 40 80 38 120 -4 38 -41
55 -99 55 -191 0 -56 3 -66 16 -63 14 3 17 21 18 125 1 94 4 126 16 137 25 24
133 26 165 2 18 -13 17 -15 -11 -62 -17 -27 -30 -61 -30 -76 1 -33 48 -71 87
-70 25 1 29 -3 29 -28 0 -26 21 -46 34 -33 3 4 6 26 6 50 0 24 4 43 8 43 15 0
34 81 27 119 -8 48 10 66 49 51 15 -5 38 -10 52 -10 18 0 24 -6 25 -22 1 -17
2 -19 6 -5 2 9 9 17 15 17 6 0 4 8 -5 18 -17 19 -21 38 -19 84 2 32 48 57 93
50 31 -5 55 -48 46 -82 -3 -13 1 -24 13 -30 28 -15 50 -73 50 -133 0 -37 5
-59 16 -68 13 -10 17 -10 24 2 5 7 7 24 3 36 -7 32 5 89 23 108 20 20 60 19
68 -1 3 -9 6 -31 6 -49 0 -20 6 -35 15 -39 19 -7 23 3 27 79 2 33 12 75 21 94
21 42 22 77 1 39 -16 -31 -43 -48 -92 -59 -31 -7 -35 -4 -58 33 -25 38 -25 41
-9 74 l16 34 73 0 c77 0 103 12 86 40 -6 8 -10 72 -10 141 0 69 -3 174 -7 232
l-6 107 -46 -2 c-25 -1 -91 -4 -146 -5z m-432 -238 c4 -25 9 -56 13 -70 5 -22
3 -25 -21 -25 -27 0 -28 1 -21 46 3 26 6 57 6 70 0 41 17 26 23 -21z m192 -85
c3 -5 1 -10 -4 -10 -6 0 -11 5 -11 10 0 6 2 10 4 10 3 0 8 -4 11 -10z m-420
-310 c3 -5 -1 -10 -10 -10 -9 0 -13 5 -10 10 3 6 8 10 10 10 2 0 7 -4 10 -10z
m-230 -20 c-3 -5 -21 -9 -38 -9 l-32 1 30 8 c43 11 47 11 40 0z"/>
<path d="M1740 1083 c0 -5 -16 -7 -35 -5 -105 12 -127 -133 -30 -195 35 -23
52 -60 41 -89 -8 -22 -40 -13 -44 13 -6 42 -62 39 -62 -4 0 -35 42 -73 82 -73
46 0 74 23 82 65 8 43 -3 66 -61 126 -35 37 -44 52 -41 75 4 37 41 42 46 6 3
-17 9 -22 25 -20 19 3 22 9 22 52 0 30 -5 51 -13 54 -6 2 -12 0 -12 -5z"/>
<path d="M973 1053 c-34 -7 -30 -41 5 -45 l27 -3 3 -147 3 -148 30 0 30 0 -7
150 -7 150 27 0 c21 0 26 5 26 25 0 24 -2 25 -57 24 -32 -1 -68 -4 -80 -6z"/>
<path d="M797 1032 c-11 -12 -17 -36 -17 -65 0 -43 4 -51 50 -98 51 -52 67
-100 36 -112 -17 -7 -36 11 -36 35 0 13 -8 18 -25 18 -21 0 -25 -5 -25 -30 0
-20 9 -40 26 -57 21 -21 32 -24 62 -19 47 7 72 37 72 87 0 34 -8 48 -55 99
-56 61 -70 102 -39 114 21 8 34 -1 34 -25 0 -14 7 -19 25 -19 19 0 25 5 25 23
0 12 -7 33 -16 45 -20 29 -93 31 -117 4z"/>
<path d="M545 1007 c-9 -46 2 -77 26 -77 27 0 27 70 0 94 -19 17 -20 17 -26
-17z"/>
<path d="M452 1018 c-14 -18 -16 -44 -14 -176 2 -96 4 -105 28 -129 21 -21 32
-24 62 -19 56 9 72 35 72 122 l0 74 -40 0 c-36 0 -40 -2 -40 -25 0 -16 6 -25
15 -25 11 0 15 -11 15 -39 0 -43 -17 -65 -40 -51 -11 7 -16 38 -21 122 -6 124
-17 169 -37 146z"/>
<path d="M677 906 c-4 -9 -14 -16 -24 -16 -13 0 -14 -3 -5 -12 7 -7 12 -21 12
-31 0 -16 3 -17 15 -7 12 10 18 10 31 -1 15 -12 16 -11 10 8 -5 15 -2 25 11
32 17 10 17 10 -1 11 -10 0 -24 7 -31 16 -11 16 -12 16 -18 0z"/>
<path d="M1760 910 c0 -5 5 -10 10 -10 6 0 10 5 10 10 0 6 -4 10 -10 10 -5 0
-10 -4 -10 -10z"/>
<path d="M1494 325 c0 -77 2 -107 3 -67 2 40 2 103 0 140 -2 37 -3 4 -3 -73z"/>
</g>
</svg>
